<svg xmlns="http://www.w3.org/2000/svg" version="1.1" xmlns:xlink="http://www.w3.org/1999/xlink" xmlns:svgjs="http://svgjs.dev/svgjs" width="2000" height="1247" viewBox="0 0 2000 1247"><g transform="matrix(1,0,0,1,-1.2121212121212466,0.504858299595071)"><svg viewBox="0 0 396 247" data-background-color="#ffffff" preserveAspectRatio="xMidYMid meet" height="1247" width="2000" xmlns="http://www.w3.org/2000/svg" xmlns:xlink="http://www.w3.org/1999/xlink"><g id="tight-bounds" transform="matrix(1,0,0,1,0.2400000000000091,-0.09999999999999432)"><svg viewBox="0 0 395.52 247.2" height="247.2" width="395.52"><g><svg></svg></g><g><svg viewBox="0 0 395.52 247.2" height="247.2" width="395.52"><g><path d="M55.039 247.2l26.403-45.732h7.584l-22.403 38.804h262.274l-22.403-38.804 7.584 0 26.403 45.732zM197.76 0l26.403 45.732-7.583 0-18.82-32.596-18.82 32.596-7.583 0z" fill="#ffffff" fill-rule="nonzero" stroke="none" stroke-width="1" stroke-linecap="butt" stroke-linejoin="miter" stroke-miterlimit="10" stroke-dasharray="" stroke-dashoffset="0" font-family="none" font-weight="none" font-size="none" text-anchor="none" style="mix-blend-mode: normal" data-fill-palette-color="tertiary"></path></g><g transform="matrix(1,0,0,1,18.649904240766062,67.97999999999999)"><svg viewBox="0 0 358.22019151846786 111.24" height="111.24" width="358.22019151846786"><g><svg viewBox="0 0 358.22019151846786 111.24" height="111.24" width="358.22019151846786"><g><svg viewBox="0 0 358.22019151846786 111.24" height="111.24" width="358.22019151846786"><g><svg viewBox="0 0 358.22019151846786 111.24" height="111.24" width="358.22019151846786"><g id="textblocktransform"><svg viewBox="0 0 358.22019151846786 111.24" height="111.24" width="358.22019151846786" id="textblock"><g><svg viewBox="0 0 358.22019151846786 111.24" height="111.24" width="358.22019151846786"><g transform="matrix(1,0,0,1,0,0)"><svg width="358.22019151846786" viewBox="1.5 -36.15 117.69 36.55" height="111.24" data-palette-color="#e33e33"><path d="M9.65-18.85L9.65-18.85 9.65-5.7Q11.5-5 12.4-3.85L12.4-3.85 11.9 0 2.1 0 1.6-3.85Q2.5-5 4.35-5.7L4.35-5.7 4.35-28.8Q2.3-29.55 1.5-30.65L1.5-30.65 2-34.5 12.3-34.5 22.25-15.1Q23.35-13 24.4-9.5L24.4-9.5 24.75-8.3 25.3-8.5Q24.6-12.85 24.6-15.8L24.6-15.8 24.6-28.75Q22.8-29.45 21.85-30.65L21.85-30.65 22.35-34.5 32.15-34.5 32.65-30.65Q31.7-29.45 29.9-28.75L29.9-28.75 29.9 0 22.05 0 12-19.55Q10.9-21.65 9.85-25.2L9.85-25.2 9.5-26.35 8.95-26.15Q9.65-21.8 9.65-18.85ZM35.2-21.15L35.7-25Q38.5-25.65 40.9-25.65 43.3-25.65 44.95-25.5L44.95-25.5 44.95-5.55Q46.9-4.8 47.7-3.85L47.7-3.85 47.2 0 35.7 0 35.2-3.85Q35.9-4.8 37.95-5.55L37.95-5.55 37.95-19.45Q36.2-20.05 35.2-21.15L35.2-21.15ZM41.37-28.45Q37.2-28.45 37.2-32.23 37.2-36 41.37-36 45.55-36 45.55-32.23 45.55-28.45 41.37-28.45ZM62.2-31.65L62.7-35.5Q65.55-36.15 68.15-36.15 70.75-36.15 72.6-36L72.6-36 72.6-6Q74.1-5.75 75.35-5.15L75.35-5.15 75.35-1.2Q72.35 0.4 67.75 0.4L67.75 0.4Q67.25 0.15 66.77-0.5 66.3-1.15 66.25-1.75L66.25-1.75Q65.15-0.85 63.4-0.23 61.65 0.4 59.95 0.4L59.95 0.4Q54.55 0.4 52.12-2.53 49.7-5.45 49.7-12.1L49.7-12.1Q49.7-19.65 53.4-22.7L53.4-22.7Q56.65-25.4 61.4-25.4L61.4-25.4Q63.5-25.4 65.6-24.9L65.6-24.9 65.6-29.85Q63.3-30.5 62.2-31.65L62.2-31.65ZM61-4.7L61-4.7Q63.85-4.7 65.6-6.4L65.6-6.4 65.6-19.8Q63.55-20.3 61.25-20.3 58.95-20.3 57.92-18.28 56.9-16.25 56.9-12.23 56.9-8.2 57.9-6.45 58.9-4.7 61-4.7ZM76.84-31.65L77.34-35.5Q80.14-36.15 82.54-36.15 84.94-36.15 86.59-36L86.59-36 86.59-23.5Q87.79-24.3 89.79-24.85 91.79-25.4 93.34-25.4L93.34-25.4Q98.29-25.4 100.19-23 102.09-20.6 102.09-15.7L102.09-15.7 102.09-5.55Q104.04-4.8 104.84-3.85L104.84-3.85 104.34 0 92.84 0 92.34-3.85Q93.04-4.8 95.09-5.55L95.09-5.55 95.09-15.45Q95.09-18.15 94.22-19.07 93.34-20 91.04-20 88.74-20 86.59-18.4L86.59-18.4 86.59-5.55Q88.54-4.8 89.34-3.85L89.34-3.85 88.84 0 77.34 0 76.84-3.85Q77.54-4.8 79.59-5.55L79.59-5.55 79.59-29.95Q77.84-30.55 76.84-31.65L76.84-31.65ZM106.69-21.15L107.19-25Q109.99-25.65 112.39-25.65 114.79-25.65 116.44-25.5L116.44-25.5 116.44-5.55Q118.39-4.8 119.19-3.85L119.19-3.85 118.69 0 107.19 0 106.69-3.85Q107.39-4.8 109.44-5.55L109.44-5.55 109.44-19.45Q107.69-20.05 106.69-21.15L106.69-21.15ZM112.87-28.45Q108.69-28.45 108.69-32.23 108.69-36 112.87-36 117.04-36 117.04-32.23 117.04-28.45 112.87-28.45Z" opacity="1" transform="matrix(1,0,0,1,0,0)" fill="#ffffff" class="wordmark-text-0" data-fill-palette-color="primary" id="text-0"></path></svg></g></svg></g></svg></g></svg></g><g></g></svg></g></svg></g></svg></g></svg></g><defs></defs></svg><rect width="395.52" height="247.2" fill="none" stroke="none" visibility="hidden"></rect></g></svg></g></svg>