<svg xmlns="http://www.w3.org/2000/svg" version="1.1" xmlns:xlink="http://www.w3.org/1999/xlink" xmlns:svgjs="http://svgjs.dev/svgjs" width="2000" height="631" viewBox="0 0 2000 631"><g transform="matrix(1,0,0,1,-1.2121212121212466,-1.264254942672153)"><svg viewBox="0 0 396 125" data-background-color="#471aa0" preserveAspectRatio="xMidYMid meet" height="631" width="2000" xmlns="http://www.w3.org/2000/svg" xmlns:xlink="http://www.w3.org/1999/xlink"><g id="tight-bounds" transform="matrix(1,0,0,1,0.2400000000000091,0.2504467002123931)"><svg viewBox="0 0 395.52 124.49901511648972" height="124.49901511648972" width="395.52"><g><svg viewBox="0 0 671.9726523747235 211.51884457389863" height="124.49901511648972" width="395.52"><g transform="matrix(1,0,0,1,276.45265237472347,1.37988345273871)"><svg viewBox="0 0 395.52 208.7590776684212" height="208.7590776684212" width="395.52"><g id="textblocktransform"><svg viewBox="0 0 395.52 208.7590776684212" height="208.7590776684212" width="395.52" id="textblock"><g><svg viewBox="0 0 395.52 137.52733823180847" height="137.52733823180847" width="395.52"><g transform="matrix(1,0,0,1,0,0)"><svg width="395.52" viewBox="3.3 -35.23 102.99000000000001 35.82" height="137.52733823180847" data-palette-color="#ffffff"><path d="M3.3-24.95L3.3-24.95 7.35-25.85Q7.81-24.39 8.01-23.02L8.01-23.02Q8.11-22.36 8.25-20.41L8.25-20.41 8.76-20.41Q10.11-22.88 12.08-24.34L12.08-24.34Q14.26-25.95 16.67-25.95L16.67-25.95Q20.31-25.95 22.22-24.19L22.22-24.19Q23.85-22.71 24.49-19.63L24.49-19.63Q24.9-17.53 24.9-13.38L24.9-13.38 24.9 0 20.7 0 20.7-14.55Q20.7-18.19 20-19.75L20-19.75Q18.95-22.07 15.77-22.07L15.77-22.07Q13.53-22.07 11.38-19.92L11.38-19.92Q9.94-18.48 8.3-15.7L8.3-15.7 8.3 0 4.1 0 4.1-15.63Q4.1-18.92 3.93-21.31L3.93-21.31Q3.83-22.8 3.3-24.95ZM34.57-35.23L34.57-35.23Q35.69-35.23 36.52-34.45L36.52-34.45Q37.33-33.59 37.33-32.45L37.33-32.45Q37.33-31.27 36.52-30.47L36.52-30.47Q35.69-29.64 34.57-29.64L34.57-29.64Q33.4-29.64 32.57-30.47L32.57-30.47Q31.74-31.25 31.74-32.45L31.74-32.45Q31.74-33.62 32.57-34.45L32.57-34.45Q33.4-35.23 34.57-35.23ZM32.42 0L32.42-25.39 36.62-25.39 36.62 0 32.42 0ZM60.2-25.34L60.2-35.16 64.4-35.16 64.4-9.59Q64.4-5.3 64.52-3.96L64.52-3.96Q64.64-2.29 65.08-0.39L65.08-0.39 61.03 0.51Q60.62-0.85 60.42-2.25L60.42-2.25Q60.18-3.96 60.15-4.88L60.15-4.88 59.79-4.88Q58.52-2.25 56.98-1L56.98-1Q55.12 0.59 52.39 0.59L52.39 0.59Q50 0.59 48.26-0.45 46.53-1.49 45.56-3.34 44.6-5.2 44.15-7.42 43.7-9.64 43.7-12.33L43.7-12.33Q43.7-15.36 44.32-17.77 44.94-20.19 46.24-22.06 47.53-23.93 49.7-24.94 51.87-25.95 54.8-25.95L54.8-25.95Q57.1-25.95 60.2-25.34L60.2-25.34ZM60.2-10.28L60.2-10.28 60.2-21.63Q57.44-22.36 55.12-22.36L55.12-22.36Q53.14-22.36 51.72-21.64 50.29-20.92 49.48-19.62 48.68-18.31 48.31-16.7 47.94-15.09 47.94-13.09L47.94-13.09Q47.94-11.72 48.01-10.68 48.07-9.64 48.22-8.44 48.38-7.23 48.73-6.37 49.07-5.52 49.58-4.79 50.09-4.05 50.91-3.67 51.73-3.3 52.8-3.3L52.8-3.3Q55.39-3.3 57.29-5.37L57.29-5.37Q58.66-6.88 60.2-10.28ZM72.94 0L72.94-35.16 77.14-35.16 77.14-19.85Q78.78-22.63 80.85-24.19L80.85-24.19Q83.22-25.95 85.56-25.95L85.56-25.95Q89.08-25.95 91.03-24.19L91.03-24.19Q92.72-22.68 93.35-19.63L93.35-19.63Q93.84-17.31 93.84-13.38L93.84-13.38 93.84 0 89.64 0 89.64-14.55Q89.64-16.04 89.57-17 89.49-17.97 89.21-19.03 88.93-20.09 88.41-20.69 87.88-21.29 86.94-21.68 86-22.07 84.66-22.07L84.66-22.07Q82.34-22.07 80.19-19.87L80.19-19.87Q78.83-18.48 77.14-15.63L77.14-15.63 77.14 0 72.94 0ZM103.53-35.23L103.53-35.23Q104.65-35.23 105.48-34.45L105.48-34.45Q106.29-33.59 106.29-32.45L106.29-32.45Q106.29-31.27 105.48-30.47L105.48-30.47Q104.65-29.64 103.53-29.64L103.53-29.64Q102.36-29.64 101.53-30.47L101.53-30.47Q100.7-31.25 100.7-32.45L100.7-32.45Q100.7-33.62 101.53-34.45L101.53-34.45Q102.36-35.23 103.53-35.23ZM101.38 0L101.38-25.39 105.58-25.39 105.58 0 101.38 0Z" opacity="1" transform="matrix(1,0,0,1,0,0)" fill="#ffffff" class="wordmark-text-0" data-fill-palette-color="primary" id="text-0"></path></svg></g></svg></g><g transform="matrix(1,0,0,1,0,169.9942421322209)"><svg viewBox="0 0 232.209792 38.76483553620032" height="38.76483553620032" width="232.209792"><g transform="matrix(1,0,0,1,0,0)"><svg width="232.209792" viewBox="2 -36 275.52 46" height="38.76483553620032" data-palette-color="#ffffff"><path d="M28.15 0L23.95 0 17.1-35.25 21.2-35.25 28.15 0ZM13 0L8.5 0 2-35.25 6.5-35.25 13 0ZM14.1 0L9.85 0 16.85-35.25 20.95-35.25 14.1 0ZM29.5 0L25.05 0 31.55-35.25 36-35.25 29.5 0ZM57-11.25L39.95-11.25 39.95-14.5 57-14.5 57-11.25ZM47.95 0.8L47.7 0.8 47.7-3.15 47.95-3.15 47.95 0.8ZM43.05-8.95L38.5-8.95 38.5-16.3 43.05-16.3 43.05-8.95ZM57-14.5L52.45-14.5 52.45-17.1 57-17.1 57-14.5ZM57-17.1L57-17.1 52.45-17.1Q52.45-19.3 51.12-20.7 49.8-22.1 47.7-22.1L47.7-22.1 47.7-26Q50.4-26 52.47-24.85 54.55-23.7 55.77-21.68 57-19.65 57-17.1ZM52.65-7.5L52.65-7.5 56.9-6.65Q56.6-4.5 55.35-2.8 54.1-1.1 52.2-0.15 50.3 0.8 47.95 0.8L47.95 0.8 47.95-3.15Q49.75-3.15 51.07-4.23 52.4-5.3 52.65-7.5ZM43.05-16.25L38.5-16.25Q38.5-19.1 39.72-21.28 40.95-23.45 43.02-24.73 45.1-26 47.75-26L47.75-26 47.75-22.1Q45.55-22.1 44.3-20.58 43.05-19.05 43.05-16.25L43.05-16.25ZM38.5-8.95L38.5-8.95 43.05-8.95Q43.05-6.2 44.3-4.67 45.55-3.15 47.75-3.15L47.75-3.15 47.75 0.8Q45.1 0.8 43.02-0.48 40.95-1.75 39.72-3.95 38.5-6.15 38.5-8.95ZM66.2-25.2L61.65-25.2 61.65-35.25 66.2-35.25 66.2-25.2ZM66.2-25.25L66.2 0 61.65 0 61.65-25.25 66.2-25.25ZM80.25-17.2L80.25-8.05 75.7-8.05 75.7-17.2 80.25-17.2ZM80.25-17.2L75.7-17.2Q75.7-19.3 74.4-20.63 73.09-21.95 71.05-21.95L71.05-21.95 72.2-26Q74.5-26 76.32-24.85 78.15-23.7 79.2-21.7 80.25-19.7 80.25-17.2L80.25-17.2ZM66.2-17.1L64.2-17.1Q64.2-19.65 65.25-21.68 66.3-23.7 68.09-24.85 69.9-26 72.2-26L72.2-26 71.05-21.95Q68.9-21.95 67.55-20.6 66.2-19.25 66.2-17.1L66.2-17.1ZM75.7-8.05L75.7-8.05 80.25-8.05Q80.25-5.55 79.2-3.55 78.15-1.55 76.32-0.4 74.5 0.75 72.2 0.75L72.2 0.75 71.05-3.3Q73.09-3.3 74.4-4.63 75.7-5.95 75.7-8.05ZM64.2-8.2L64.2-8.2 66.2-8.2Q66.2-6 67.55-4.65 68.9-3.3 71.05-3.3L71.05-3.3 72.2 0.75Q69.9 0.75 68.09-0.43 66.3-1.6 65.25-3.63 64.2-5.65 64.2-8.2ZM112.89-9.35L108.34-9.35 108.34-25.9 112.89-25.9 112.89-9.35ZM103.04 0L98.09 0 98.09-3.95 103.04-3.95 103.04 0ZM103.04-31.3L98.09-31.3 98.09-35.25 103.04-35.25 103.04-31.3ZM103.04-31.3L98.09-31.3 98.09-35.25 103.04-35.25 103.04-31.3ZM112.89-25.9L112.89-25.9 108.34-25.9Q108.34-28.5 106.94-29.9 105.54-31.3 103.04-31.3L103.04-31.3 103.04-35.25Q105.94-35.25 108.17-34.08 110.39-32.9 111.64-30.78 112.89-28.65 112.89-25.9ZM108.34-9.4L112.89-9.4Q112.89-6.6 111.64-4.5 110.39-2.4 108.17-1.2 105.94 0 103.04 0L103.04 0 103.04-3.95Q105.54-3.95 106.94-5.38 108.34-6.8 108.34-9.4L108.34-9.4ZM99.44 0L94.89 0 94.89-35.25 99.44-35.25 99.44 0ZM135.79-11.25L118.74-11.25 118.74-14.5 135.79-14.5 135.79-11.25ZM126.74 0.8L126.49 0.8 126.49-3.15 126.74-3.15 126.74 0.8ZM121.84-8.95L117.29-8.95 117.29-16.3 121.84-16.3 121.84-8.95ZM135.79-14.5L131.24-14.5 131.24-17.1 135.79-17.1 135.79-14.5ZM135.79-17.1L135.79-17.1 131.24-17.1Q131.24-19.3 129.91-20.7 128.59-22.1 126.49-22.1L126.49-22.1 126.49-26Q129.19-26 131.26-24.85 133.34-23.7 134.56-21.68 135.79-19.65 135.79-17.1ZM131.44-7.5L131.44-7.5 135.69-6.65Q135.39-4.5 134.14-2.8 132.89-1.1 130.99-0.15 129.09 0.8 126.74 0.8L126.74 0.8 126.74-3.15Q128.54-3.15 129.86-4.23 131.19-5.3 131.44-7.5ZM121.84-16.25L117.29-16.25Q117.29-19.1 118.51-21.28 119.74-23.45 121.81-24.73 123.89-26 126.54-26L126.54-26 126.54-22.1Q124.34-22.1 123.09-20.58 121.84-19.05 121.84-16.25L121.84-16.25ZM117.29-8.95L117.29-8.95 121.84-8.95Q121.84-6.2 123.09-4.67 124.34-3.15 126.54-3.15L126.54-3.15 126.54 0.8Q123.89 0.8 121.81-0.48 119.74-1.75 118.51-3.95 117.29-6.15 117.29-8.95ZM151.89 0L147.69 0 155.49-25.25 160.04-25.25 151.89 0ZM151.39 0L147.24 0 139.04-25.25 143.59-25.25 151.39 0ZM180.68-11.25L163.63-11.25 163.63-14.5 180.68-14.5 180.68-11.25ZM171.63 0.8L171.38 0.8 171.38-3.15 171.63-3.15 171.63 0.8ZM166.73-8.95L162.18-8.95 162.18-16.3 166.73-16.3 166.73-8.95ZM180.68-14.5L176.13-14.5 176.13-17.1 180.68-17.1 180.68-14.5ZM180.68-17.1L180.68-17.1 176.13-17.1Q176.13-19.3 174.81-20.7 173.48-22.1 171.38-22.1L171.38-22.1 171.38-26Q174.08-26 176.16-24.85 178.23-23.7 179.46-21.68 180.68-19.65 180.68-17.1ZM176.33-7.5L176.33-7.5 180.58-6.65Q180.28-4.5 179.03-2.8 177.78-1.1 175.88-0.15 173.98 0.8 171.63 0.8L171.63 0.8 171.63-3.15Q173.43-3.15 174.76-4.23 176.08-5.3 176.33-7.5ZM166.73-16.25L162.18-16.25Q162.18-19.1 163.41-21.28 164.63-23.45 166.71-24.73 168.78-26 171.43-26L171.43-26 171.43-22.1Q169.23-22.1 167.98-20.58 166.73-19.05 166.73-16.25L166.73-16.25ZM162.18-8.95L162.18-8.95 166.73-8.95Q166.73-6.2 167.98-4.67 169.23-3.15 171.43-3.15L171.43-3.15 171.43 0.8Q168.78 0.8 166.71-0.48 164.63-1.75 163.41-3.95 162.18-6.15 162.18-8.95ZM190.38 0L185.83 0 185.83-36 190.38-36 190.38 0ZM214.13-8.95L209.58-8.95 209.58-16.3 214.13-16.3 214.13-8.95ZM200.08-8.95L195.53-8.95 195.53-16.3 200.08-16.3 200.08-8.95ZM204.98-22.05L204.68-22.05 204.68-26 204.98-26 204.98-22.05ZM204.98 0.75L204.68 0.75 204.68-3.2 204.98-3.2 204.98 0.75ZM200.08-16.25L195.53-16.25Q195.53-19.05 196.75-21.25 197.98-23.45 200.05-24.73 202.13-26 204.78-26L204.78-26 204.78-22.05Q202.58-22.05 201.33-20.55 200.08-19.05 200.08-16.25L200.08-16.25ZM214.13-16.25L214.13-16.25 209.58-16.25Q209.58-19.05 208.35-20.55 207.13-22.05 204.88-22.05L204.88-22.05 204.88-26Q207.53-26 209.6-24.73 211.68-23.45 212.9-21.25 214.13-19.05 214.13-16.25ZM195.53-9L195.53-9 200.08-9Q200.08-6.25 201.33-4.73 202.58-3.2 204.78-3.2L204.78-3.2 204.78 0.75Q202.13 0.75 200.05-0.53 197.98-1.8 196.75-4 195.53-6.2 195.53-9ZM209.58-9L214.13-9Q214.13-6.2 212.9-4 211.68-1.8 209.6-0.53 207.53 0.75 204.88 0.75L204.88 0.75 204.88-3.2Q207.13-3.2 208.35-4.73 209.58-6.25 209.58-9L209.58-9ZM218.78 10L218.78-0.05 223.33-0.05 223.33 10 218.78 10ZM218.78-25.25L223.33-25.25 223.33 0 218.78 0 218.78-25.25ZM232.83-17.2L237.38-17.2 237.38-8.05 232.83-8.05 232.83-17.2ZM232.83-8.05L232.83-8.05 237.38-8.05Q237.38-5.55 236.33-3.55 235.28-1.55 233.45-0.4 231.63 0.75 229.33 0.75L229.33 0.75 228.18-3.3Q230.23-3.3 231.53-4.63 232.83-5.95 232.83-8.05ZM221.33-8.2L221.33-8.2 223.33-8.2Q223.33-6 224.68-4.65 226.03-3.3 228.18-3.3L228.18-3.3 229.33 0.75Q227.03 0.75 225.23-0.43 223.43-1.6 222.38-3.63 221.33-5.65 221.33-8.2ZM237.38-17.2L232.83-17.2Q232.83-19.3 231.53-20.63 230.23-21.95 228.18-21.95L228.18-21.95 229.33-26Q231.63-26 233.45-24.85 235.28-23.7 236.33-21.7 237.38-19.7 237.38-17.2L237.38-17.2ZM223.33-17.1L221.33-17.1Q221.33-19.65 222.38-21.68 223.43-23.7 225.23-24.85 227.03-26 229.33-26L229.33-26 228.18-21.95Q226.03-21.95 224.68-20.6 223.33-19.25 223.33-17.1L223.33-17.1ZM259.77-11.25L242.72-11.25 242.72-14.5 259.77-14.5 259.77-11.25ZM250.72 0.8L250.47 0.8 250.47-3.15 250.72-3.15 250.72 0.8ZM245.82-8.95L241.27-8.95 241.27-16.3 245.82-16.3 245.82-8.95ZM259.77-14.5L255.22-14.5 255.22-17.1 259.77-17.1 259.77-14.5ZM259.77-17.1L259.77-17.1 255.22-17.1Q255.22-19.3 253.9-20.7 252.57-22.1 250.47-22.1L250.47-22.1 250.47-26Q253.17-26 255.25-24.85 257.32-23.7 258.55-21.68 259.77-19.65 259.77-17.1ZM255.42-7.5L255.42-7.5 259.67-6.65Q259.37-4.5 258.12-2.8 256.87-1.1 254.97-0.15 253.07 0.8 250.72 0.8L250.72 0.8 250.72-3.15Q252.52-3.15 253.85-4.23 255.17-5.3 255.42-7.5ZM245.82-16.25L241.27-16.25Q241.27-19.1 242.5-21.28 243.72-23.45 245.8-24.73 247.87-26 250.52-26L250.52-26 250.52-22.1Q248.32-22.1 247.07-20.58 245.82-19.05 245.82-16.25L245.82-16.25ZM241.27-8.95L241.27-8.95 245.82-8.95Q245.82-6.2 247.07-4.67 248.32-3.15 250.52-3.15L250.52-3.15 250.52 0.8Q247.87 0.8 245.8-0.48 243.72-1.75 242.5-3.95 241.27-6.15 241.27-8.95ZM268.97 0L264.42 0 264.42-25.25 268.97-25.25 268.97 0ZM268.97-16.9L266.92-16.9Q266.92-19.45 267.77-21.48 268.62-23.5 270.1-24.65 271.57-25.8 273.37-25.8L273.37-25.8 272.97-21.55Q271.22-21.55 270.1-20.23 268.97-18.9 268.97-16.9L268.97-16.9ZM277.52-24.2L275.97-20.4Q275.37-20.9 274.55-21.23 273.72-21.55 272.97-21.55L272.97-21.55 273.37-25.8Q274.52-25.8 275.62-25.38 276.72-24.95 277.52-24.2L277.52-24.2Z" opacity="1" transform="matrix(1,0,0,1,0,0)" fill="#ffffff" class="slogan-text-1" data-fill-palette-color="secondary" id="text-1"></path></svg></g></svg></g></svg></g></svg></g><g><svg viewBox="0 0 211.51884457389863 211.51884457389863" height="211.51884457389863" width="211.51884457389863"><g><svg></svg></g><g id="icon-0"><svg viewBox="0 0 211.51884457389863 211.51884457389863" height="211.51884457389863" width="211.51884457389863"><g><path d="M0 105.759c0-58.409 47.35-105.759 105.759-105.759 58.409 0 105.759 47.35 105.76 105.759 0 58.409-47.35 105.759-105.76 105.76-58.409 0-105.759-47.35-105.759-105.76zM105.759 199.116c51.56 0 93.357-41.797 93.357-93.357 0-51.56-41.797-93.357-93.357-93.357-51.56 0-93.357 41.797-93.357 93.357 0 51.56 41.797 93.357 93.357 93.357z" data-fill-palette-color="accent" fill="#ffffff" stroke="transparent"></path></g><g transform="matrix(1,0,0,1,59.06880674837808,49.80528915151108)"><svg viewBox="0 0 93.38123107714247 111.90826627087647" height="111.90826627087647" width="93.38123107714247"><g><svg xmlns="http://www.w3.org/2000/svg" xmlns:xlink="http://www.w3.org/1999/xlink" version="1.1" x="0" y="0" viewBox="12.4 5 75.1 90" enable-background="new 0 0 100 100" xml:space="preserve" height="111.90826627087647" width="93.38123107714247" class="icon-dxe-0" data-fill-palette-color="accent" id="dxe-0"><path d="M87.5 85V83.8C87.5 73.9 76.1 68.1 69.3 64.7 67.9 64 66.8 63.4 66.1 63 65.3 62.5 64.7 61.7 64.3 60.9H64.5C73.1 60.9 77.3 55.2 77.5 55 77.8 54.6 77.9 54 77.8 53.5S77.4 52.5 76.9 52.3C74.5 50.9 72.2 48.6 71.7 37.1 72 35.3 72.2 33.4 72.2 31.5 72.3 16.8 62.7 5 51 5S29.8 16.8 29.8 31.2C29.8 33.1 30 35 30.3 36.8 29.8 48.3 27.5 50.6 25.1 52.1 24.6 52.4 24.3 52.8 24.2 53.3S24.2 54.4 24.5 54.8C24.7 55.1 28.8 60.7 37.5 60.7H37.7C37.3 61.6 36.7 62.3 35.9 62.8 35.2 63.3 33.7 64 32 64.7 24.7 68.1 12.4 73.9 12.4 83.6V95H87.4zM36.8 41.6C36.1 38.3 35.5 32.2 37.7 28.8 38.6 27.4 39.9 26.6 41.7 26.2 50.1 24.7 54.3 21.7 56.5 18.8 57.9 20.5 59.6 22 61.3 23.5 64.2 26.1 67.3 28.8 67.3 31.2 67.3 43 60 52.5 51 52.5 44.9 52.5 39.6 48.1 36.8 41.6M61.6 65.6C60.2 66.6 56.6 68.8 51 68.8 46.3 68.8 42.1 66.6 40.5 65.5 43.1 62.6 43.6 58.5 43.6 55.9 45.9 57 48.4 57.6 51 57.6S56.1 57 58.4 55.9C58.4 58.5 58.9 62.6 61.6 65.6M43.8 76.4L36.9 81.3 43.8 86.2V90L34 83.2V79.3L43.7 72.5V76.4zM51 90H47.1L51 72.5H54.9zM68.5 83.2L58.8 90V86.1L65.7 81.2 58.8 76.3V72.4L68.5 79.2z" fill="#ffffff" data-fill-palette-color="accent"></path></svg></g></svg></g></svg></g></svg></g></svg></g><defs></defs></svg><rect width="395.52" height="124.49901511648972" fill="none" stroke="none" visibility="hidden"></rect></g></svg></g></svg>